<?xml version="1.0" encoding="utf-8"?>
<!-- Generator: Adobe Illustrator 27.5.0, SVG Export Plug-In . SVG Version: 6.00 Build 0)  -->
<svg version="1.1" xmlns="http://www.w3.org/2000/svg" xmlns:xlink="http://www.w3.org/1999/xlink" x="0px" y="0px"
	 viewBox="0 0 500 500" style="enable-background:new 0 0 500 500;" xml:space="preserve">
<g id="BACKGROUND">
	<g>
		<rect style="fill:#FEE8C8;" width="500" height="500"/>
	</g>
</g>
<g id="OBJECTS">
	<g>
		<g style="opacity:0.5;">
			<g>
				<g>
					<g>
						<g>
							<path style="fill:#D8BA9A;" d="M93.167,220.829h-18.44c-1.301,0-2.356-1.055-2.356-2.357v-5.711
								c0-1.301,1.055-2.357,2.356-2.357h18.44c1.301,0,2.357,1.055,2.357,2.357v5.711
								C95.524,219.774,94.469,220.829,93.167,220.829z"/>
						</g>
					</g>
				</g>
			</g>
			<g>
				<g>
					<g>
						<g>
							<path style="fill:#D8BA9A;" d="M117.924,220.829h-18.44c-1.301,0-2.357-1.055-2.357-2.357v-5.711
								c0-1.301,1.055-2.357,2.357-2.357h18.44c1.301,0,2.357,1.055,2.357,2.357v5.711
								C120.281,219.774,119.226,220.829,117.924,220.829z"/>
						</g>
					</g>
				</g>
			</g>
			<g>
				<g>
					<g>
						<g>
							<path style="fill:#D8BA9A;" d="M105.437,232.456h-18.44c-1.301,0-2.357-1.055-2.357-2.357v-5.711
								c0-1.301,1.055-2.357,2.357-2.357h18.44c1.301,0,2.357,1.055,2.357,2.357v5.711
								C107.794,231.401,106.739,232.456,105.437,232.456z"/>
						</g>
					</g>
				</g>
			</g>
		</g>
		<g style="opacity:0.5;">
			<g>
				<g>
					<g>
						<g>
							<path style="fill:#D8BA9A;" d="M380.492,94.307h-18.44c-1.302,0-2.357-1.055-2.357-2.356v-5.711
								c0-1.302,1.055-2.357,2.357-2.357h18.44c1.301,0,2.357,1.055,2.357,2.357v5.711
								C382.849,93.252,381.794,94.307,380.492,94.307z"/>
						</g>
					</g>
				</g>
			</g>
			<g>
				<g>
					<g>
						<g>
							<path style="fill:#D8BA9A;" d="M405.249,94.307h-18.44c-1.302,0-2.357-1.055-2.357-2.356v-5.711
								c0-1.302,1.055-2.357,2.357-2.357h18.44c1.301,0,2.357,1.055,2.357,2.357v5.711
								C407.606,93.252,406.551,94.307,405.249,94.307z"/>
						</g>
					</g>
				</g>
			</g>
			<g>
				<g>
					<g>
						<g>
							<path style="fill:#D8BA9A;" d="M392.762,105.934h-18.44c-1.301,0-2.357-1.055-2.357-2.357v-5.711
								c0-1.302,1.055-2.357,2.357-2.357h18.44c1.302,0,2.357,1.055,2.357,2.357v5.711
								C395.119,104.879,394.064,105.934,392.762,105.934z"/>
						</g>
					</g>
				</g>
			</g>
		</g>
		<g>
			<g style="opacity:0.5;">
				<g>
					<g>
						<path style="fill:#C1A084;" d="M87.91,276.198c-4.198,0-7.614-3.416-7.614-7.614c0-4.198,3.416-7.614,7.614-7.614
							c4.198,0,7.614,3.416,7.614,7.614C95.524,272.782,92.108,276.198,87.91,276.198z M87.91,262.407
							c-3.406,0-6.176,2.771-6.176,6.176c0,3.406,2.771,6.177,6.176,6.177c3.406,0,6.176-2.771,6.176-6.177
							C94.086,265.178,91.316,262.407,87.91,262.407z"/>
					</g>
				</g>
			</g>
			<g style="opacity:0.5;">
				<g>
					<g>
						<path style="fill:#C1A084;" d="M438.509,168.074c-4.198,0-7.614-3.416-7.614-7.614c0-4.198,3.416-7.614,7.614-7.614
							c4.198,0,7.614,3.416,7.614,7.614C446.123,164.658,442.707,168.074,438.509,168.074z M438.509,154.283
							c-3.406,0-6.176,2.771-6.176,6.176c0,3.406,2.771,6.177,6.176,6.177c3.406,0,6.177-2.771,6.177-6.177
							C444.685,157.054,441.914,154.283,438.509,154.283z"/>
					</g>
				</g>
			</g>
		</g>
		<g>
			<g>
				<g style="opacity:0.5;">
					<g>
						<g>
							<path style="fill:#D8BA9A;" d="M77.291,77.072h46.697v96.758H77.291c-3.311,0-5.999-2.689-5.999-5.999V83.067
								C71.291,79.756,73.98,77.072,77.291,77.072z"/>
						</g>
					</g>
					<g>
						<g>
							<rect x="125.502" y="77.072" style="fill:#D8BA9A;" width="67.253" height="96.758"/>
						</g>
					</g>
					<g>
						<g>
							<path style="fill:#D8BA9A;" d="M249.072,83.067v84.764c0,3.311-2.684,5.999-5.999,5.999h-48.803V77.072h48.803
								C246.387,77.072,249.072,79.756,249.072,83.067z"/>
						</g>
					</g>
				</g>
				<g>
					<g style="opacity:0.2;">
						<g>
							
								<rect x="131.786" y="93.998" transform="matrix(0.0857 -0.9963 0.9963 0.0857 26.6007 234.0959)" style="fill:#C1A084;" width="18.133" height="17.112"/>
						</g>
					</g>
					<g>
						<g>
							
								<rect x="131.457" y="93.003" transform="matrix(0.0857 -0.9963 0.9963 0.0857 26.8258 232.3501)" style="fill:#FEE8C8;" width="17.11" height="17.112"/>
						</g>
					</g>
					<g style="opacity:0.5;">
						<g>
							
								<rect x="139.422" y="88.887" transform="matrix(0.9963 0.0857 -0.0857 0.9963 8.3871 -11.7353)" style="fill:#FEE8C8;" width="2.861" height="5.826"/>
						</g>
					</g>
				</g>
				<g>
					<g style="opacity:0.2;">
						<g>
							
								<rect x="168.249" y="124.725" transform="matrix(0.9963 -0.0857 0.0857 0.9963 -10.8188 15.6496)" style="fill:#C1A084;" width="17.112" height="18.133"/>
						</g>
					</g>
					<g>
						<g>
							
								<rect x="169.088" y="124.241" transform="matrix(0.9963 -0.0857 0.0857 0.9963 -10.7302 15.7176)" style="fill:#FEE8C8;" width="17.112" height="17.11"/>
						</g>
					</g>
					<g>
						<g>
							
								<rect x="175.374" y="120.125" transform="matrix(-0.9963 0.0858 -0.0858 -0.9963 363.5087 230.4624)" style="fill:#FEE8C8;" width="2.861" height="5.826"/>
						</g>
					</g>
				</g>
				<g>
					<g style="opacity:0.2;">
						<g>
							
								<rect x="84.353" y="143.789" transform="matrix(0.0857 -0.9963 0.9963 0.0857 -66.3731 232.3608)" style="fill:#C1A084;" width="18.133" height="17.112"/>
						</g>
					</g>
					<g>
						<g>
							
								<rect x="84.025" y="142.793" transform="matrix(0.0857 -0.9963 0.9963 0.0857 -66.1494 230.6133)" style="fill:#FEE8C8;" width="17.11" height="17.112"/>
						</g>
					</g>
					<g style="opacity:0.5;">
						<g>
							
								<rect x="91.989" y="138.678" transform="matrix(0.9963 0.0857 -0.0857 0.9963 12.4851 -7.489)" style="fill:#FEE8C8;" width="2.861" height="5.826"/>
						</g>
					</g>
				</g>
				<g>
					<g style="opacity:0.2;">
						<g>
							
								<rect x="220.957" y="91.706" transform="matrix(0.0857 -0.9963 0.9963 0.0857 110.4107 320.8435)" style="fill:#C1A084;" width="18.133" height="17.112"/>
						</g>
					</g>
					<g>
						<g>
							
								<rect x="220.628" y="90.711" transform="matrix(0.0857 -0.9963 0.9963 0.0857 110.6338 319.0963)" style="fill:#FEE8C8;" width="17.11" height="17.112"/>
						</g>
					</g>
					<g>
						<g>
							
								<rect x="228.593" y="86.595" transform="matrix(0.9963 0.0857 -0.0857 0.9963 8.5192 -19.3878)" style="fill:#FEE8C8;" width="2.861" height="5.826"/>
						</g>
					</g>
				</g>
				<g>
					<g>
						<g>
							<path style="fill:#D8BA9A;" d="M114.178,88.189H83.072c-0.541,0-0.979-0.438-0.979-0.979l0,0
								c0-0.541,0.438-0.979,0.979-0.979h31.106c0.54,0,0.979,0.438,0.979,0.979l0,0C115.157,87.751,114.718,88.189,114.178,88.189z
								"/>
						</g>
					</g>
					<g>
						<g>
							<path style="fill:#D8BA9A;" d="M114.178,93.837H83.072c-0.541,0-0.979-0.438-0.979-0.979l0,0
								c0-0.541,0.438-0.979,0.979-0.979h31.106c0.54,0,0.979,0.438,0.979,0.979l0,0C115.157,93.399,114.718,93.837,114.178,93.837z
								"/>
						</g>
					</g>
					<g>
						<g>
							<path style="fill:#D8BA9A;" d="M114.178,99.485H83.072c-0.541,0-0.979-0.438-0.979-0.979l0,0c0-0.54,0.438-0.979,0.979-0.979
								h31.106c0.54,0,0.979,0.438,0.979,0.979l0,0C115.157,99.047,114.718,99.485,114.178,99.485z"/>
						</g>
					</g>
					<g>
						<g>
							<path style="fill:#D8BA9A;" d="M114.178,105.134H83.072c-0.541,0-0.979-0.438-0.979-0.979l0,0
								c0-0.541,0.438-0.979,0.979-0.979h31.106c0.54,0,0.979,0.438,0.979,0.979l0,0
								C115.157,104.696,114.718,105.134,114.178,105.134z"/>
						</g>
					</g>
					<g>
						<g>
							<path style="fill:#D8BA9A;" d="M114.178,110.782H83.072c-0.541,0-0.979-0.438-0.979-0.979l0,0
								c0-0.541,0.438-0.979,0.979-0.979h31.106c0.54,0,0.979,0.438,0.979,0.979l0,0
								C115.157,110.344,114.718,110.782,114.178,110.782z"/>
						</g>
					</g>
					<g>
						<g>
							<path style="fill:#D8BA9A;" d="M114.178,116.43H83.072c-0.541,0-0.979-0.438-0.979-0.979l0,0
								c0-0.541,0.438-0.979,0.979-0.979h31.106c0.54,0,0.979,0.438,0.979,0.979l0,0C115.157,115.992,114.718,116.43,114.178,116.43
								z"/>
						</g>
					</g>
				</g>
				<g>
					<g>
						<g>
							<path style="fill:#D8BA9A;" d="M237.223,127.884h-31.106c-0.541,0-0.979-0.438-0.979-0.979l0,0
								c0-0.541,0.438-0.979,0.979-0.979h31.106c0.541,0,0.979,0.438,0.979,0.979l0,0
								C238.202,127.446,237.764,127.884,237.223,127.884z"/>
						</g>
					</g>
					<g>
						<g>
							<path style="fill:#D8BA9A;" d="M237.223,133.533h-31.106c-0.541,0-0.979-0.438-0.979-0.979l0,0
								c0-0.54,0.438-0.979,0.979-0.979h31.106c0.541,0,0.979,0.438,0.979,0.979l0,0
								C238.202,133.095,237.764,133.533,237.223,133.533z"/>
						</g>
					</g>
					<g>
						<g>
							<path style="fill:#D8BA9A;" d="M237.223,139.181h-31.106c-0.541,0-0.979-0.438-0.979-0.979l0,0
								c0-0.541,0.438-0.979,0.979-0.979h31.106c0.541,0,0.979,0.438,0.979,0.979l0,0
								C238.202,138.743,237.764,139.181,237.223,139.181z"/>
						</g>
					</g>
					<g>
						<g>
							<path style="fill:#D8BA9A;" d="M237.223,144.829h-31.106c-0.541,0-0.979-0.438-0.979-0.979l0,0
								c0-0.541,0.438-0.979,0.979-0.979h31.106c0.541,0,0.979,0.438,0.979,0.979l0,0
								C238.202,144.391,237.764,144.829,237.223,144.829z"/>
						</g>
					</g>
					<g>
						<g>
							<path style="fill:#D8BA9A;" d="M237.223,150.478h-31.106c-0.541,0-0.979-0.438-0.979-0.979l0,0
								c0-0.541,0.438-0.979,0.979-0.979h31.106c0.541,0,0.979,0.438,0.979,0.979l0,0
								C238.202,150.04,237.764,150.478,237.223,150.478z"/>
						</g>
					</g>
					<g>
						<g>
							<path style="fill:#D8BA9A;" d="M237.223,156.126h-31.106c-0.541,0-0.979-0.438-0.979-0.979l0,0
								c0-0.541,0.438-0.979,0.979-0.979h31.106c0.541,0,0.979,0.438,0.979,0.979l0,0
								C238.202,155.688,237.764,156.126,237.223,156.126z"/>
						</g>
					</g>
				</g>
			</g>
			<g>
				<g>
					<g style="opacity:0.5;">
						<path style="fill:#D8BA9A;" d="M295.039,128.691c-13.28,0-24.085-10.804-24.085-24.084s10.804-24.085,24.085-24.085
							c13.28,0,24.085,10.804,24.085,24.085S308.319,128.691,295.039,128.691z"/>
					</g>
				</g>
				<g>
					<g>
						
							<ellipse transform="matrix(0.2112 -0.9774 0.9774 0.2112 130.4707 370.8914)" style="fill:#FEE8C8;" cx="295.039" cy="104.606" rx="19.072" ry="19.072"/>
					</g>
				</g>
				<g>
					<g>
						<path style="fill:#D8BA9A;" d="M295.063,90.483h-0.048c-0.238,0-0.43-0.192-0.43-0.43v-2.725c0-0.238,0.193-0.43,0.43-0.43
							h0.048c0.238,0,0.43,0.192,0.43,0.43v2.725C295.493,90.291,295.301,90.483,295.063,90.483z"/>
					</g>
				</g>
				<g>
					<g>
						<path style="fill:#D8BA9A;" d="M285.07,94.603l-0.034,0.034c-0.168,0.168-0.44,0.168-0.608,0L282.5,92.71
							c-0.168-0.168-0.168-0.44,0-0.608l0.034-0.034c0.168-0.168,0.44-0.168,0.608,0l1.927,1.927
							C285.238,94.163,285.238,94.435,285.07,94.603z"/>
					</g>
				</g>
				<g>
					<g>
						<path style="fill:#D8BA9A;" d="M280.916,104.582v0.048c0,0.237-0.193,0.43-0.43,0.43h-2.725c-0.237,0-0.43-0.193-0.43-0.43
							v-0.048c0-0.237,0.193-0.43,0.43-0.43h2.725C280.724,104.152,280.916,104.345,280.916,104.582z"/>
					</g>
				</g>
				<g>
					<g>
						<path style="fill:#D8BA9A;" d="M285.036,114.576l0.034,0.034c0.168,0.168,0.168,0.44,0,0.608l-1.927,1.927
							c-0.168,0.168-0.44,0.168-0.608,0l-0.034-0.034c-0.168-0.168-0.168-0.44,0-0.608l1.927-1.927
							C284.595,114.408,284.868,114.408,285.036,114.576z"/>
					</g>
				</g>
				<g>
					<g>
						<path style="fill:#D8BA9A;" d="M295.015,118.729h0.048c0.238,0,0.43,0.192,0.43,0.43v2.725c0,0.237-0.193,0.43-0.43,0.43
							h-0.048c-0.238,0-0.43-0.193-0.43-0.43v-2.725C294.585,118.922,294.777,118.729,295.015,118.729z"/>
					</g>
				</g>
				<g>
					<g>
						<path style="fill:#D8BA9A;" d="M305.008,114.61l0.034-0.034c0.168-0.168,0.44-0.168,0.608,0l1.927,1.927
							c0.168,0.168,0.168,0.44,0,0.608l-0.034,0.034c-0.168,0.168-0.44,0.168-0.608,0l-1.927-1.927
							C304.84,115.05,304.84,114.778,305.008,114.61z"/>
					</g>
				</g>
				<g>
					<g>
						<path style="fill:#D8BA9A;" d="M309.162,104.63v-0.048c0-0.237,0.193-0.43,0.43-0.43h2.725c0.237,0,0.43,0.193,0.43,0.43
							v0.048c0,0.237-0.193,0.43-0.43,0.43h-2.725C309.354,105.06,309.162,104.868,309.162,104.63z"/>
					</g>
				</g>
				<g>
					<g>
						<path style="fill:#D8BA9A;" d="M305.042,94.637l-0.034-0.034c-0.168-0.168-0.168-0.44,0-0.608l1.927-1.927
							c0.168-0.168,0.44-0.168,0.608,0l0.034,0.034c0.168,0.168,0.168,0.44,0,0.608l-1.927,1.927
							C305.482,94.805,305.21,94.805,305.042,94.637z"/>
					</g>
				</g>
				<g>
					<g>
						<path style="fill:#D8BA9A;" d="M305.069,104.921c-0.035,0.035-0.084,0.057-0.137,0.056l-9.797-0.11
							c-0.105-0.001-0.189-0.086-0.189-0.191V93.767c0-0.106,0.085-0.191,0.191-0.191c0.106,0,0.191,0.086,0.191,0.191v10.72
							l9.608,0.108c0.106,0.001,0.19,0.088,0.189,0.193C305.124,104.84,305.103,104.887,305.069,104.921z"/>
					</g>
				</g>
			</g>
		</g>
	</g>
	<g>
		<g>
			<g>
				<path style="fill:#D8BA9A;" d="M146.648,449.746c0,0-8.522-12.987-4.442-16.016c4.08-3.03,7.592,13.215,7.592,13.215
					s2.437-8.451,6.872-6.762c5.297,2.018-2.72,9.563-2.72,9.563H146.648z"/>
			</g>
		</g>
		<g>
			<g>
				<path style="fill:#D8BA9A;" d="M258.982,449.746c0,0,8.522-12.987,4.442-16.016c-4.08-3.03-7.592,13.215-7.592,13.215
					s-2.437-8.451-6.872-6.762c-5.297,2.018,2.72,9.563,2.72,9.563H258.982z"/>
			</g>
		</g>
		<g>
			<ellipse style="fill:#D8BA9A;" cx="245.882" cy="456.05" rx="203.816" ry="8.289"/>
		</g>
		<g>
			<path style="opacity:0.5;fill:#D6B898;" d="M217.295,406.51c5.347,16.479-19.388,24.935-25.248,8.632
				c-0.35-0.975-0.661-2.009-0.923-3.105c-1.692-7.057-1.507-13.538-0.68-18.764c1.105-6.988,9.578-9.885,14.73-5.036
				c3.853,3.626,7.968,8.637,10.951,15.252C216.587,404.516,216.975,405.524,217.295,406.51z"/>
			<path style="opacity:0.5;fill:#D6B898;" d="M195.052,421.801c9.849,7.824-1.722,22.868-11.811,15.355
				c-0.604-0.449-1.206-0.95-1.805-1.508c-3.856-3.59-6.345-7.586-7.942-11.079c-2.136-4.671,1.827-9.824,6.89-8.959
				c3.787,0.648,8.287,2.027,12.747,4.833C193.824,420.879,194.463,421.333,195.052,421.801z"/>
			<g>
				<path style="fill:#D6B898;" d="M183.164,423.953c9.502,5.177,16.511,14.401,18.951,24.944c0.1,0.431-0.563,0.614-0.663,0.183
					c-2.402-10.379-9.28-19.435-18.635-24.533C182.428,424.335,182.775,423.741,183.164,423.953L183.164,423.953z"/>
			</g>
			<g>
				<path style="fill:#D6B898;" d="M201.713,400.578c5.337,15.728,9.232,31.922,11.631,48.357c0.063,0.433-0.599,0.619-0.663,0.183
					c-2.398-16.435-6.293-32.629-11.631-48.357C200.908,400.34,201.571,400.16,201.713,400.578L201.713,400.578z"/>
			</g>
		</g>
		<g>
			<path style="opacity:0.5;fill:#D6B898;" d="M368.738,408.237c-5.347,16.479,19.388,24.935,25.248,8.632
				c0.351-0.975,0.661-2.009,0.924-3.105c1.692-7.057,1.507-13.538,0.68-18.764c-1.105-6.988-9.578-9.885-14.73-5.036
				c-3.853,3.626-7.969,8.637-10.951,15.252C369.446,406.243,369.058,407.25,368.738,408.237z"/>
			<path style="opacity:0.5;fill:#D6B898;" d="M390.981,423.527c-9.849,7.824,1.722,22.868,11.811,15.355
				c0.604-0.449,1.206-0.95,1.805-1.508c3.856-3.59,6.345-7.586,7.943-11.079c2.136-4.671-1.827-9.824-6.89-8.959
				c-3.787,0.647-8.287,2.027-12.747,4.833C392.209,422.605,391.57,423.059,390.981,423.527z"/>
			<g>
				<path style="fill:#D6B898;" d="M402.869,425.68c-9.502,5.177-16.511,14.401-18.951,24.944c-0.1,0.43,0.563,0.614,0.663,0.183
					c2.402-10.38,9.28-19.436,18.635-24.533C403.605,426.062,403.258,425.468,402.869,425.68L402.869,425.68z"/>
			</g>
			<g>
				<path style="fill:#D6B898;" d="M384.32,402.304c-5.338,15.728-9.232,31.922-11.631,48.357c-0.063,0.433,0.599,0.62,0.663,0.183
					c2.398-16.435,6.293-32.629,11.631-48.357C385.125,402.067,384.462,401.887,384.32,402.304L384.32,402.304z"/>
			</g>
		</g>
	</g>
	<g>
		<g>
			<g>
				<path style="fill:#FFFFFF;" d="M411.975,122.773c0.272,0.541,0.536,1.085,0.795,1.63c1.426,3.008,2.673,6.095,4.038,9.131
					c1.275,2.836,2.67,5.623,4.111,8.38c-6.518,3.838-13.493,5.989-19.68,7.175c-11.998-0.967-22.121-9.101-22.121-9.101
					c-0.875-1.74-0.732-3.696,0.001-5.776C388.211,139.049,403.161,128.5,411.975,122.773z"/>
			</g>
			<g>
				<path style="fill:#D8BA9A;" d="M401.238,149.088c0,0-6.121-6.382-4.699-13.537c0,0-11.51,5.78-17.422,4.436
					C379.117,139.987,389.241,148.121,401.238,149.088z"/>
			</g>
		</g>
		<g>
			<g>
				<path style="fill:#FFFFFF;" d="M146.87,192.782c-0.272,0.541-0.536,1.085-0.795,1.63c-1.426,3.008-2.673,6.095-4.038,9.131
					c-1.275,2.836-2.669,5.623-4.111,8.38c6.518,3.838,13.493,5.989,19.68,7.175c11.998-0.967,22.121-9.101,22.121-9.101
					c0.875-1.74,0.732-3.696-0.001-5.776C170.634,209.058,155.683,198.509,146.87,192.782z"/>
			</g>
			<g>
				<path style="fill:#D8BA9A;" d="M157.606,219.097c0,0,6.121-6.382,4.699-13.537c0,0,11.51,5.78,17.422,4.436
					C179.728,209.996,169.604,218.13,157.606,219.097z"/>
			</g>
		</g>
	</g>
	<g>
		<g>
			<g>
				<g>
					<g>
						<g>
							<g>
								<g>
									<rect x="317.591" y="331.82" style="fill:#272B34;" width="6.455" height="108.667"/>
								</g>
							</g>
						</g>
					</g>
				</g>
			</g>
		</g>
		<g>
			<g>
				<path style="fill:#272B34;" d="M291.827,439.05h-6.099c0-12.057,6.103-21.872,17.65-28.383
					c8.442-4.76,16.792-6.055,17.144-6.108l0.906,6.031l-0.453-3.015l0.457,3.015c-0.076,0.012-7.731,1.218-15.202,5.471
					C296.672,421.501,291.827,429.236,291.827,439.05z"/>
			</g>
		</g>
		<g>
			<g>
				<path style="fill:#272B34;" d="M356.311,439.05h-6.099c0-9.814-4.846-17.549-14.403-22.989
					c-7.472-4.253-15.126-5.46-15.202-5.471l0.91-6.03c0.351,0.053,8.702,1.347,17.144,6.108
					C350.208,417.178,356.311,426.993,356.311,439.05z"/>
			</g>
		</g>
		<g>
			<g>
				<g>
					<g>
						<g>
							<g>
								<path style="fill:#272B34;" d="M325.754,384.704h-9.87c-0.606,0-1.097-0.491-1.097-1.097v-41.782h12.065v41.782
									C326.851,384.213,326.36,384.704,325.754,384.704z"/>
							</g>
						</g>
					</g>
				</g>
			</g>
		</g>
		<g>
			<g>
				<path style="fill:#63636D;" d="M317.737,385.014c2.042,0.017,4.083,0.034,6.125,0.051c0.406,0.003,0.406-0.628,0-0.631
					c-2.042-0.017-4.083-0.034-6.125-0.051C317.331,384.38,317.331,385.011,317.737,385.014L317.737,385.014z"/>
			</g>
		</g>
		<g>
			<g>
				<g>
					<g>
						<g>
							<g>
								<g>
									<g>
										<g>
											<g>
												<g>
													<path style="fill:#272B34;" d="M296.313,446.283c0,4.564-3.7,8.264-8.264,8.264c-4.564,0-8.264-3.7-8.264-8.264
														c0-4.564,3.7-8.264,8.264-8.264C292.613,438.019,296.313,441.719,296.313,446.283z"/>
												</g>
											</g>
										</g>
									</g>
								</g>
							</g>
							<g>
								<g>
									<g>
										<g>
											<g>
												<g>
													<path style="fill:#63636D;" d="M288.049,451.016c-2.61,0-4.733-2.123-4.733-4.733s2.123-4.733,4.733-4.733
														c2.61,0,4.733,2.123,4.733,4.733S290.659,451.016,288.049,451.016z"/>
												</g>
											</g>
										</g>
									</g>
								</g>
							</g>
						</g>
						<g>
							<g>
								<g>
									<g>
										<g>
											<g>
												<g>
													<path style="fill:#272B34;" d="M329.174,446.283c0,4.564-3.7,8.264-8.264,8.264c-4.564,0-8.264-3.7-8.264-8.264
														c0-4.564,3.7-8.264,8.264-8.264C325.474,438.019,329.174,441.719,329.174,446.283z"/>
												</g>
											</g>
										</g>
									</g>
								</g>
							</g>
							<g>
								<g>
									<g>
										<g>
											<g>
												<g>
													<path style="fill:#63636D;" d="M320.909,451.016c-2.61,0-4.733-2.123-4.733-4.733s2.123-4.733,4.733-4.733
														c2.61,0,4.733,2.123,4.733,4.733S323.52,451.016,320.909,451.016z"/>
												</g>
											</g>
										</g>
									</g>
								</g>
							</g>
						</g>
						<g>
							<g>
								<g>
									<g>
										<g>
											<g>
												<g>
													<path style="fill:#272B34;" d="M362.15,446.283c0,4.564-3.7,8.264-8.264,8.264c-4.564,0-8.264-3.7-8.264-8.264
														c0-4.564,3.7-8.264,8.264-8.264C358.45,438.019,362.15,441.719,362.15,446.283z"/>
												</g>
											</g>
										</g>
									</g>
								</g>
							</g>
							<g>
								<g>
									<g>
										<g>
											<g>
												<path style="fill:#63636D;" d="M353.886,451.016c-2.61,0-4.733-2.123-4.733-4.733s2.123-4.733,4.733-4.733
													c2.61,0,4.733,2.123,4.733,4.733S356.496,451.016,353.886,451.016z"/>
											</g>
										</g>
									</g>
								</g>
							</g>
						</g>
					</g>
				</g>
				<g>
					<g>
						<g>
							<g>
								<g>
									<path style="fill:#CE6F00;" d="M422.939,190.377l-35.076,146.118c-1.132,4.715-5.348,8.039-10.197,8.039h-82.324
										c-6.804,0-11.807-6.379-10.185-12.987l35.867-146.118c1.151-4.69,5.356-7.987,10.185-7.987h81.533
										C419.524,177.442,424.522,183.782,422.939,190.377z"/>
								</g>
							</g>
						</g>
					</g>
					<g>
						<g>
							<g>
								<g>
									<path style="fill:#FEA500;" d="M413.878,190.377l-35.076,146.118c-1.132,4.715-5.348,8.039-10.197,8.039h-82.324
										c-6.804,0-11.807-6.379-10.185-12.987l35.867-146.118c1.151-4.69,5.355-7.987,10.184-7.987h81.533
										C410.463,177.442,415.461,183.782,413.878,190.377z"/>
								</g>
							</g>
						</g>
					</g>
					<g>
						<g>
							<g>
								<g>
									<path style="fill:#CE6F00;" d="M368.605,337.38h-82.324c-1.411,0-2.249-0.8-2.623-1.276
										c-0.374-0.477-0.951-1.482-0.614-2.852l35.867-146.118c0.367-1.495,1.698-2.538,3.237-2.538h81.533
										c1.407,0,2.244,0.795,2.618,1.27c0.374,0.474,0.952,1.474,0.624,2.842l-35.076,146.118
										C371.485,336.329,370.152,337.38,368.605,337.38z M322.148,185.476c-1.132,0-2.111,0.768-2.382,1.868l-35.867,146.118
										c-0.248,1.008,0.177,1.747,0.452,2.098c0.275,0.35,0.892,0.939,1.93,0.939h82.324c1.138,0,2.119-0.773,2.385-1.88
										l35.076-146.118c0.242-1.006-0.184-1.742-0.458-2.091c-0.275-0.349-0.891-0.934-1.926-0.934H322.148z"/>
								</g>
							</g>
						</g>
					</g>
				</g>
				<g>
					<g>
						<g>
							<g>
								<path style="fill:#CE6F00;" d="M237.153,348.865h138.265c5.51,0,10.293-3.798,11.542-9.165l1.852-7.96H241.137
									L237.153,348.865z"/>
							</g>
						</g>
					</g>
				</g>
				<g>
					<g>
						<g>
							<g>
								<path style="fill:#FEA500;" d="M239.048,348.865H366.53c5.51,0,10.293-3.798,11.542-9.165l1.852-7.96H239.048
									c-3.981,0-7.437,2.744-8.34,6.622l0,0C229.46,343.731,233.536,348.865,239.048,348.865z"/>
							</g>
						</g>
					</g>
				</g>
			</g>
		</g>
		<g>
			<g>
				<g>
					<path style="fill:#473A94;" d="M289.051,286.726c0,0-10.124,10.269-10.344,23.688c-0.316,19.359,47.267,32.883,77.502,8.663
						c17.067-13.672,12.885-17.357,12.885-17.357l-3.649-15.705L289.051,286.726z"/>
				</g>
			</g>
			<g>
				<g>
					<g>
						<g>
							<g>
								<path style="fill:#272B34;" d="M300.529,229.506c0,0-21.11,13.947-35.302,7.076c-6.136-2.971-7.413-12.24-13.841-27.832
									c-6.428-15.592-12.258-26.043,3.631-27.915c11.28-1.329,17.514,20.128,17.514,20.128c3.593,1.014,7.031,2.017,24.844-7.302
									C311.825,186.101,300.529,229.506,300.529,229.506z"/>
							</g>
						</g>
					</g>
					<g>
						<path style="fill:#63636D;" d="M260.177,190.203c0,0.635-0.515,1.15-1.15,1.15c-0.635,0-1.15-0.515-1.15-1.15
							c0-0.635,0.515-1.15,1.15-1.15C259.662,189.053,260.177,189.568,260.177,190.203z"/>
					</g>
					<g>
						<g>
							<path style="fill:#63636D;" d="M246.072,194.66c4.044,1.604,8.836,2.333,12.898,0.369c3.305-1.598,5.836-4.992,5.588-8.762
								c-0.027-0.41-0.669-0.413-0.642,0c0.244,3.706-2.355,6.971-5.662,8.383c-3.849,1.644-8.247,0.882-12.01-0.61
								C245.859,193.889,245.692,194.51,246.072,194.66L246.072,194.66z"/>
						</g>
					</g>
					<g>
						<g>
							<path style="fill:#63636D;" d="M251.265,188.67c0.853,2.528,1.992,4.928,3.418,7.184c0.22,0.348,0.776,0.027,0.555-0.324
								c-1.396-2.209-2.517-4.554-3.353-7.031C251.752,188.11,251.132,188.277,251.265,188.67L251.265,188.67z"/>
						</g>
					</g>
					<g>
						<g>
							<path style="fill:#63636D;" d="M272.411,201.187c2.736,6.322,5.618,12.578,8.646,18.764c0.182,0.371,0.736,0.046,0.554-0.324
								c-3.028-6.187-5.911-12.443-8.646-18.765C272.802,200.485,272.248,200.811,272.411,201.187L272.411,201.187z"/>
						</g>
					</g>
					<g>
						<g>
							<path style="fill:#63636D;" d="M279.421,215.671c1.47,0.505,2.834,1.199,4.114,2.08c0.341,0.235,0.663-0.321,0.324-0.554
								c-1.323-0.911-2.748-1.623-4.267-2.145C279.2,214.918,279.032,215.538,279.421,215.671L279.421,215.671z"/>
						</g>
					</g>
					<g>
						<g>
							<g>
								<g>
									<path style="fill:#ED681D;" d="M251.799,172.975l6.077,9.712c-0.154,3.315-2.134,7.73-10.528,6.136l-2.903-8.838
										L251.799,172.975z"/>
								</g>
							</g>
						</g>
						<g>
							<g>
								<g>
									<g>
										<g>
											<path style="fill:#ED681D;" d="M242.165,167.37c1.565-0.242-0.836-2.824-2.324-4.279
												c-1.921-1.879-1.424-3.962,1.964-2.383c4.388,2.045,5.496,3.016,8.115,5.785c0.737,0.779,1.215,1.715,1.521,2.657
												c0.8,2.459,0.448,5.144-0.829,7.393c-0.545,0.96-1.267,2.119-2.17,3.339c-2.323,3.139-8.057,1.581-11.434,1.71
												c-3.377,0.128-6.783-1.199-9.387-3.241c-2.605-2.042-6.207-4.182-4.689-5.287c1.518-1.105,5.959,3.827,6.427,3.08
												c0.468-0.746-9.809-6.322-9.505-7.745c0.304-1.423,2.248-0.769,2.248-0.769s-1.593-1.215-0.558-2.301
												c1.035-1.087,3.893-0.011,3.893-0.011l6.382,2.481c0,0-3.326-3.729-2.204-5.626c1.121-1.897,6.482-2.181,7.76-1.933
												c1.278,0.249,1.463,1.324-0.277,2.348c-1.741,1.024-3.452,0.978-3.065,2.487c0.388,1.509,2.065,2.839,3.782,2.671
												C239.533,167.58,242.165,167.37,242.165,167.37z"/>
										</g>
									</g>
								</g>
								<g>
									<g>
										<g>
											<g>
												<path style="fill:#B6461D;" d="M222.121,167.242c3.383,1.301,6.709,2.714,9.963,4.23
													c0.384,0.179-0.065,0.755-0.446,0.578c-3.204-1.493-6.479-2.883-9.808-4.163
													C221.434,167.734,221.721,167.088,222.121,167.242L222.121,167.242z"/>
											</g>
										</g>
									</g>
								</g>
								<g>
									<g>
										<g>
											<path style="fill:#B6461D;" d="M230.555,174.53c0.737-2.789,2.1-5.408,4.065-7.762c0.302-0.362,0.856-0.023,0.554,0.34
												c-1.882,2.254-3.211,4.761-3.918,7.434C231.144,174.968,230.441,174.96,230.555,174.53L230.555,174.53z"/>
										</g>
									</g>
								</g>
								<g>
									<g>
										<g>
											<g>
												<path style="fill:#B6461D;" d="M236.131,170.923c4.422-0.637,8.211,1.217,9.842,4.836
													c0.168,0.374-0.496,0.702-0.664,0.328c-1.507-3.342-5.015-5.102-9.111-4.512
													C235.745,171.64,235.672,170.99,236.131,170.923L236.131,170.923z"/>
											</g>
										</g>
									</g>
								</g>
							</g>
						</g>
					</g>
				</g>
				<g>
					<g>
						<g>
							<g>
								<path style="fill:#272B34;" d="M285.665,291.208c3.495,5.912,9.722,9.582,16.181,11.718
									c7.399,2.446,15.293,3.279,23.052,3.461c7.543,0.18,15.104-0.291,22.589-1.214c6.37-0.785,12.834-1.794,18.987-3.677
									c0.283-0.086,0.565-0.176,0.845-0.265c0.16-0.051,0.321-0.103,0.482-0.156c2.05-0.676,0.429-0.611,2.374-1.602
									c-1.466-14.282-5.296-42.308-1.499-50.854c0.017-0.039,0.004-0.086,0.006-0.128c0.041-0.875,0.096-1.736,0.169-2.581
									c0.801-9.099,2.81-15.946,4.268-21.984c1.62-6.689,2.558-12.386,0.426-19.047c-0.631-1.973-1.406-3.609-2.305-4.976
									c-4.904-7.457-13.501-6.984-22.617-9.895c-2.643-0.841-5.332-1.969-7.984-3.66c-0.276-0.175-0.55-0.345-0.822-0.505
									c-4.283-2.555-7.915-3.367-10.862-3.307c-2.851,0.058-5.06,0.931-6.586,1.828c-1.618,0.948-2.472,1.922-2.523,1.982
									l-0.002,0.002c0,0-2.14,0.471-5.148,1.254c-5.531,1.432-14.004,3.919-17.519,6.451c-3.97,2.866-4.685,17.478-4.831,31.803
									c-0.051,5.107,0.696,23.465,0.668,27.955L285.665,291.208z"/>
							</g>
						</g>
					</g>
				</g>
				<g>
					<g>
						<path style="fill:#63636D;" d="M337.46,265.599c1.02,8.28,7.787,14.657,16.124,15.155c0.406,0.024,0.404-0.607,0-0.631
							c-7.967-0.476-14.517-6.596-15.493-14.524C338.041,265.201,337.41,265.196,337.46,265.599L337.46,265.599z"/>
					</g>
				</g>
				<g>
					<g>
						<path style="fill:#63636D;" d="M301.681,261.813c-0.735,6.67-4.957,12.659-10.957,15.642
							c-0.364,0.181-0.044,0.725,0.318,0.545c6.212-3.088,10.51-9.3,11.27-16.187C302.356,261.41,301.725,261.413,301.681,261.813
							L301.681,261.813z"/>
					</g>
				</g>
				<g>
					<g>
						<g>
							<path style="fill:#63636D;" d="M321.723,257.665c-0.366,0-0.726-0.148-0.985-0.407c-0.064-0.064-0.122-0.137-0.173-0.212
								c-0.049-0.077-0.092-0.156-0.128-0.242c-0.034-0.083-0.06-0.171-0.079-0.259c-0.017-0.09-0.026-0.182-0.026-0.272
								c0-0.366,0.147-0.726,0.406-0.985s0.619-0.407,0.985-0.407s0.723,0.148,0.982,0.407c0.259,0.259,0.409,0.619,0.409,0.985
								c0,0.09-0.011,0.182-0.028,0.272c-0.017,0.088-0.045,0.176-0.079,0.259c-0.034,0.086-0.077,0.165-0.128,0.242
								c-0.051,0.075-0.109,0.148-0.173,0.212c-0.064,0.064-0.135,0.122-0.212,0.171c-0.075,0.051-0.156,0.094-0.24,0.129
								c-0.083,0.034-0.171,0.062-0.259,0.079C321.904,257.656,321.813,257.665,321.723,257.665z"/>
						</g>
					</g>
					<g>
						<g>
							<path style="fill:#63636D;" d="M318.58,294.522c-0.766-0.032-1.363-0.681-1.329-1.449l0,0
								c0.032-0.766,0.681-1.363,1.449-1.329l0,0c0.768,0.032,1.363,0.681,1.331,1.449l0,0c-0.032,0.747-0.648,1.331-1.389,1.331
								l0,0C318.621,294.524,318.602,294.524,318.58,294.522z M319.075,285.286c-0.766-0.053-1.344-0.717-1.291-1.483l0,0
								c0.053-0.766,0.717-1.346,1.483-1.293l0,0c0.766,0.053,1.344,0.719,1.293,1.485l0,0c-0.051,0.734-0.664,1.295-1.387,1.295
								l0,0C319.141,285.29,319.107,285.288,319.075,285.286z M319.775,276.063c-0.764-0.066-1.331-0.741-1.265-1.505l0,0
								c0.066-0.766,0.74-1.333,1.505-1.267l0,0c0.766,0.066,1.333,0.741,1.267,1.507l0,0c-0.062,0.723-0.67,1.272-1.385,1.272l0,0
								C319.856,276.07,319.815,276.067,319.775,276.063z M320.614,266.851c-0.764-0.075-1.323-0.756-1.246-1.522l0,0
								c0.075-0.764,0.755-1.323,1.52-1.245l0,0c0.764,0.075,1.323,0.755,1.248,1.522l0,0l0,0l0,0
								c-0.071,0.717-0.676,1.254-1.383,1.254l0,0C320.708,266.86,320.661,266.858,320.614,266.851z"/>
						</g>
					</g>
					<g>
						<g>
							<path style="fill:#63636D;" d="M318.473,303.753c-0.09,0-0.182-0.009-0.272-0.026c-0.088-0.019-0.176-0.045-0.261-0.081
								c-0.084-0.034-0.163-0.077-0.24-0.126c-0.075-0.051-0.148-0.109-0.21-0.173c-0.064-0.064-0.124-0.135-0.173-0.212
								c-0.051-0.075-0.094-0.156-0.129-0.24c-0.034-0.083-0.062-0.171-0.079-0.261c-0.019-0.09-0.028-0.18-0.028-0.272
								c0-0.09,0.009-0.182,0.028-0.272c0.017-0.088,0.045-0.175,0.079-0.259c0.034-0.086,0.077-0.165,0.129-0.24
								c0.049-0.077,0.109-0.147,0.173-0.212c0.062-0.064,0.135-0.122,0.21-0.173c0.077-0.051,0.156-0.094,0.24-0.128
								c0.086-0.034,0.173-0.062,0.261-0.079c0.18-0.036,0.364-0.036,0.544,0c0.09,0.017,0.176,0.045,0.261,0.079
								c0.083,0.034,0.165,0.077,0.24,0.128c0.077,0.051,0.148,0.109,0.212,0.173c0.064,0.064,0.122,0.135,0.173,0.212
								c0.049,0.075,0.092,0.154,0.126,0.24c0.036,0.084,0.062,0.171,0.079,0.259c0.019,0.09,0.028,0.182,0.028,0.272
								c0,0.092-0.009,0.182-0.028,0.272c-0.017,0.09-0.043,0.178-0.079,0.261c-0.034,0.084-0.077,0.165-0.126,0.24
								c-0.051,0.077-0.109,0.148-0.173,0.212C319.199,303.605,318.839,303.753,318.473,303.753z"/>
						</g>
					</g>
				</g>
				<g>
					<path style="fill:#63636D;" d="M321.722,253.077c4.585-24.272,10.232-46.488,17.024-66.486
						c-0.244,0.504,6.359,1.303,12.491,4.173l-5.1,16.923l-7.391,5.137l4.782,2.049l-7.98,24.812L321.722,253.077z"/>
				</g>
				<g>
					<path style="fill:#63636D;" d="M307.55,189.637l2.34,23.401l6.276,1.835l-5.848,6.869l1.569,13.763l9.836,17.572
						c0,0-2.155-61.997-3.248-64.799C312.505,183.807,307.55,189.637,307.55,189.637z"/>
				</g>
				<g>
					<path style="fill:#FFFFFF;" d="M318.911,202.051l2.81,51.026l11.569-49.873C333.29,203.203,327.506,194.917,318.911,202.051z"
						/>
				</g>
				<g>
					<g>
						<path style="fill:#63636D;" d="M361.153,241.68c-2.068,15.153-2.568,30.531-1.469,45.785c0.03,0.41,0.672,0.413,0.642,0
							c-1.094-15.193-0.614-30.521,1.447-45.614C361.828,241.446,361.209,241.271,361.153,241.68L361.153,241.68z"/>
					</g>
				</g>
				<g>
					<g>
						<g>
							<g>
								<g>
									<path style="fill:#272B34;" d="M355.647,235.345c0,0,15.959,18.517,29.641,26.352c11.522,6.598,14.449,0.704,28.799-14.27
										c11.668-12.177,17.757-25.392,7.956-31.45c-13.556-8.378-24.761,13.245-26.526,12.795
										c-3.618-0.923-11.772-12.716-23.909-28.742C359.274,183.742,345.266,228.159,355.647,235.345z"/>
								</g>
							</g>
						</g>
						<g>
							<g>
								<path style="fill:#63636D;" d="M364.379,196.276c-5.324,2.73-9.275,7.695-10.747,13.493
									c-0.102,0.401,0.517,0.572,0.619,0.171c1.435-5.648,5.268-10.451,10.452-13.11
									C365.071,196.642,364.746,196.088,364.379,196.276L364.379,196.276z"/>
							</g>
						</g>
						<g>
							<path style="fill:#63636D;" d="M410.629,224.222c0,0.635-0.515,1.15-1.151,1.15s-1.15-0.515-1.15-1.15
								c0-0.635,0.515-1.15,1.15-1.15S410.629,223.586,410.629,224.222z"/>
						</g>
						<g>
							<g>
								<path style="fill:#63636D;" d="M403.869,220.049c0.821,4.424,3.613,8.395,7.554,10.594
									c4.359,2.432,9.772,2.431,14.214,0.232c0.37-0.183,0.045-0.737-0.324-0.554c-4.333,2.144-9.643,2.072-13.839-0.388
									c-3.668-2.151-6.214-5.891-6.986-10.055C404.412,219.473,403.793,219.645,403.869,220.049L403.869,220.049z"/>
							</g>
						</g>
						<g>
							<g>
								<path style="fill:#63636D;" d="M418.506,221.233c-1.492,3.322-2.985,6.643-4.477,9.964
									c-0.168,0.374,0.385,0.701,0.554,0.324c1.492-3.321,2.985-6.643,4.477-9.964
									C419.228,221.183,418.675,220.856,418.506,221.233L418.506,221.233z"/>
							</g>
						</g>
						<g>
							<g>
								<path style="fill:#63636D;" d="M348.739,227.836c6.05,7.646,12.858,14.622,19.743,21.511
									c0.292,0.293,0.747-0.161,0.454-0.454c-6.885-6.889-13.693-13.864-19.744-21.511
									C348.937,227.058,348.485,227.515,348.739,227.836L348.739,227.836z"/>
							</g>
						</g>
						<g>
							<g>
								<g>
									<path style="fill:#63636D;" d="M394.753,229.106c-2.782,3.884-5.19,8.003-7.211,12.332
										c-0.232,0.497,0.507,0.932,0.74,0.433c2.021-4.329,4.429-8.448,7.211-12.332
										C395.815,229.089,395.071,228.661,394.753,229.106L394.753,229.106z"/>
								</g>
							</g>
						</g>
						<g>
							<g>
								<g>
									<path style="fill:#63636D;" d="M392.127,233.038c-2.969,0.423-5.517,1.981-7.307,4.375c-0.331,0.442,0.413,0.87,0.74,0.433
										c1.657-2.215,4.067-3.592,6.795-3.981C392.899,233.787,392.667,232.961,392.127,233.038L392.127,233.038z"/>
								</g>
							</g>
						</g>
					</g>
					<g>
						<g>
							<g>
								<g>
									<path style="fill:#ED681D;" d="M417.304,206.293l-7.248,10.92c0.065,3.318,2.298,7.917,10.732,6.549l3.679-10.263
										L417.304,206.293z"/>
								</g>
							</g>
						</g>
						<g>
							<g>
								<g>
									<g>
										<g>
											<path style="fill:#ED681D;" d="M427.085,200.949c-1.557-0.284,0.912-2.801,2.438-4.215c1.971-1.826,1.53-3.922-1.9-2.435
												c-4.441,1.926-5.575,2.867-8.267,5.565c-0.757,0.759-1.26,1.681-1.592,2.615c-0.866,2.437-0.586,5.13,0.63,7.413
												c0.519,0.975,1.21,2.152,2.079,3.396c2.238,3.201,8.011,1.797,11.384,2.016c3.373,0.219,6.813-1.017,9.471-2.988
												c2.659-1.971,6.317-4.013,4.83-5.159c-1.488-1.146-6.059,3.665-6.507,2.906c-0.448-0.759,9.975-6.056,9.709-7.487
												c-0.266-1.431-2.227-0.829-2.227-0.829s1.625-1.172,0.619-2.286c-1.006-1.114-3.891-0.116-3.891-0.116l-6.446,2.309
												c0,0,3.425-3.639,2.354-5.565c-1.07-1.926-6.421-2.354-7.705-2.14c-1.284,0.214-1.498,1.284,0.214,2.354
												c1.712,1.07,3.425,1.07,2.997,2.569c-0.428,1.498-2.14,2.782-3.853,2.568
												C429.71,201.229,427.085,200.949,427.085,200.949z"/>
										</g>
									</g>
								</g>
								<g>
									<g>
										<g>
											<g>
												<path style="fill:#B6461D;" d="M447.125,201.359c-3.416,1.21-6.779,2.533-10.073,3.961
													c-0.389,0.169,0.045,0.757,0.43,0.59c3.243-1.407,6.554-2.708,9.917-3.898
													C447.799,201.87,447.529,201.216,447.125,201.359L447.125,201.359z"/>
											</g>
										</g>
									</g>
								</g>
								<g>
									<g>
										<g>
											<path style="fill:#B6461D;" d="M438.498,208.417c-0.662-2.808-1.954-5.463-3.855-7.868
												c-0.292-0.37-0.855-0.046-0.563,0.325c1.821,2.304,3.082,4.846,3.717,7.537
												C437.898,208.84,438.601,208.851,438.498,208.417L438.498,208.417z"/>
										</g>
									</g>
								</g>
								<g>
									<g>
										<g>
											<g>
												<path style="fill:#B6461D;" d="M433.021,204.663c-4.404-0.756-8.241,0.996-9.969,4.57
													c-0.178,0.369,0.477,0.715,0.655,0.345c1.596-3.3,5.151-4.965,9.229-4.266
													C433.388,205.389,433.478,204.741,433.021,204.663L433.021,204.663z"/>
											</g>
										</g>
									</g>
								</g>
							</g>
						</g>
					</g>
				</g>
				<g>
					<g>
						<path style="fill:#272B34;" d="M316.567,163.287c0,0-5.499-0.771-4.446-4.363c1.053-3.592,3.26-2.93,0.72-5.387
							c-2.54-2.457-7.272-3.938-4.932-7.682c2.34-3.744,6.719-0.702,7.103-3.159c0.385-2.457-2.479-4.391,0.513-6.852
							c2.948-2.426,6.71,3.316,9.893-0.499c2.678-3.21,5.992-3.997,10.387-0.721c4.395,3.276,2.734,8.658,7.25,8.073
							c4.516-0.585,7.441,1.885,8.377,7.962c0.936,6.077-5.315,11.058-5.315,11.058L316.567,163.287z"/>
					</g>
					<g>
						<g>
							<g>
								<g>
									<g>
										<path style="fill:#ED681D;" d="M340.396,190.153c0,0-16.27,9.343-21.923-0.02l2.967-8.191l1.958-5.405l1.37-3.784
											l15.786-1.607C339.322,178.261,339.372,184.529,340.396,190.153z"/>
									</g>
								</g>
							</g>
						</g>
						<g>
							<g>
								<g>
									<g>
										<path style="fill:#272B34;" d="M336.486,176.667c-7.543,7.796-13.816,8.315-15.791,7.336l2.705-7.466L336.486,176.667z"/>
									</g>
								</g>
							</g>
						</g>
					</g>
					<g>
						<g>
							<g>
								<g>
									<path style="fill:#ED681D;" d="M342.554,166.994c-0.097,0.626-0.22,1.199-0.374,1.738
										c-0.355,1.245-0.869,2.302-1.595,3.359c-0.958,1.391-2.285,2.789-4.101,4.622c-2.854,2.877-6.994,3.546-10.835,3.024
										c-10.204-1.384-10.166-8.464-7.872-18.849c1.426-6.448,0.086-10.318,2.065-12.626l0.003,0.001
										c0.125-0.102,0.253-0.201,0.38-0.296c3.039-2.307,6.894-3.279,10.687-2.834c0.731,0.086,1.426,0.191,2.09,0.316
										c0.151,0.024,0.302,0.053,0.449,0.085c0.062,0.01,0.124,0.022,0.183,0.037c0.168,0.032,0.333,0.067,0.497,0.108
										c0.118,0.024,0.235,0.052,0.349,0.082c0.267,0.063,0.524,0.13,0.774,0.199c8.001,2.242,9.342,7.488,8.95,12.429
										C343.939,161.746,342.87,164.962,342.554,166.994z"/>
								</g>
							</g>
						</g>
						<g>
							<g>
								<path style="fill:#272B34;" d="M319.604,159.657c0.502,1.434,2.573,1.382,2.886-0.154c0.082-0.404-0.537-0.576-0.619-0.171
									c-0.176,0.867-1.339,1.036-1.648,0.154C320.087,159.099,319.467,159.265,319.604,159.657L319.604,159.657z"/>
							</g>
						</g>
						<g>
							<g>
								<path style="fill:#272B34;" d="M326.667,159.889c0.096,1.516,2.104,2.027,2.82,0.631c0.188-0.366-0.361-0.7-0.55-0.332
									c-0.404,0.787-1.569,0.636-1.628-0.296C327.284,159.482,326.641,159.475,326.667,159.889L326.667,159.889z"/>
							</g>
						</g>
						<g>
							<g>
								<path style="fill:#FFFFFF;" d="M326.087,168.902c0,1.137-0.922,2.059-2.059,2.059s-2.059-0.922-2.059-2.059
									c0-1.137,0.922-2.059,2.059-2.059S326.087,167.765,326.087,168.902z"/>
							</g>
						</g>
						<g>
							<g>
								<g>
									<g>
										<path style="fill:#272B34;" d="M324.822,158.911c-1,1.098-2.001,2.195-3.001,3.293c-0.151,0.166-0.171,0.433,0,0.597
											c0.516,0.494,0.961,1.025,1.351,1.625c0.295,0.454,1.026,0.031,0.729-0.426c-0.429-0.66-0.914-1.251-1.483-1.796
											c0,0.199,0,0.398,0,0.597c1-1.098,2.001-2.195,3.001-3.293C325.784,159.107,325.189,158.508,324.822,158.911
											L324.822,158.911z"/>
									</g>
								</g>
							</g>
						</g>
						<g>
							<g>
								<g>
									<g>
										<path style="fill:#B6461D;" d="M331.981,164.576c-0.087,0.558-1.025,0.875-2.096,0.709
											c-1.071-0.167-1.869-0.754-1.782-1.312c0.087-0.558,1.025-0.875,2.096-0.709
											C331.27,163.43,332.068,164.018,331.981,164.576z"/>
									</g>
								</g>
							</g>
						</g>
						<g>
							<g>
								<g>
									<g>
										<path style="fill:#B6461D;" d="M317.237,163.505c0.32,0.293,0.848,0.529,1.466,0.626c1.069,0.166,2.008-0.15,2.095-0.71
											c0.087-0.557-0.712-1.144-1.781-1.31c-0.589-0.092-1.138-0.036-1.528,0.125L317.237,163.505z"/>
									</g>
								</g>
							</g>
						</g>
						<g>
							<g>
								<g>
									<g>
										<g>
											<path style="fill:#272B34;" d="M328.212,156.843c0.661-0.162,1.569-0.008,1.763,0.766
												c0.117,0.47,0.505,0.839,1.021,0.762c0.444-0.066,0.881-0.545,0.762-1.021c-0.422-1.687-2.091-2.711-3.805-2.291
												c-0.47,0.115-0.839,0.507-0.762,1.021C327.258,156.526,327.736,156.96,328.212,156.843L328.212,156.843z"/>
										</g>
									</g>
								</g>
							</g>
						</g>
						<g>
							<g>
								<g>
									<g>
										<g>
											<path style="fill:#272B34;" d="M320.54,157.486c0.376-0.709,0.882-1.091,1.708-1.058
												c1.159,0.047,1.261-1.752,0.102-1.799c-1.425-0.058-2.652,0.614-3.324,1.881
												C318.486,157.528,319.996,158.512,320.54,157.486L320.54,157.486z"/>
										</g>
									</g>
								</g>
							</g>
						</g>
					</g>
					<g>
						<g>
							<g>
								<g>
									<path style="fill:#272B34;" d="M338.459,169.289c1.433,0.244,2.679,0.004,3.721-0.558
										c-0.355,1.245-0.869,2.302-1.595,3.359C339.651,171.434,338.908,170.525,338.459,169.289z"/>
								</g>
							</g>
						</g>
					</g>
					<g>
						<g>
							<g>
								<path style="fill:#272B34;" d="M341.933,157.961c-4.218,0.474-5.697,7.318-7.589,5.808
									c-1.892-1.51,3.719-12.183-1.667-12.718c-5.386-0.534-4.882,0.58-7.351,0.376c-4.2-0.35-3.876-2.426-5.481-3.165
									c0.125-0.102,0.253-0.201,0.38-0.296c3.039-2.307,6.894-3.279,10.687-2.834c0.731,0.086,1.426,0.191,2.09,0.316
									c0.151,0.024,0.302,0.053,0.449,0.085c0.062,0.01,0.124,0.022,0.183,0.037c0.168,0.032,0.333,0.067,0.497,0.108
									c0.118,0.024,0.235,0.052,0.349,0.082c0.264,0.059,0.524,0.127,0.774,0.199c8.001,2.242,9.342,7.488,8.95,12.429
									C343.612,158.024,342.858,157.855,341.933,157.961z"/>
							</g>
						</g>
					</g>
					<g>
						<g>
							<g>
								<path style="fill:#B6461D;" d="M334.345,163.769c1.892,1.509,3.368-5.334,7.588-5.808c0.926-0.105,1.68,0.063,2.27,0.426
									c-0.265,3.358-1.333,6.574-1.65,8.607c-0.095,0.609-0.213,1.17-0.362,1.695c2.212-3.97,4.728-8.668,5.415-10.709
									c0.14-0.412,0.237-0.805,0.299-1.182c-0.079-0.119-0.159-0.235-0.245-0.346c-0.365-0.493-0.79-0.929-1.258-1.318
									c-0.741-0.611-1.6-1.099-2.519-1.486c-2.982-1.261-6.632-1.468-9.246-1.408
									C336.264,155.176,332.798,162.532,334.345,163.769z"/>
							</g>
						</g>
					</g>
					<g>
						<g>
							<g>
								<g>
									<path style="fill:#B6461D;" d="M323.021,172.825c0.73,0.375,1.547,0.504,2.256,0.018c0.359-0.246-0.04-0.791-0.399-0.545
										c-0.506,0.347-1.076,0.171-1.58-0.089C322.911,172.009,322.636,172.626,323.021,172.825L323.021,172.825z"/>
								</g>
							</g>
						</g>
					</g>
					<g>
						<g>
							<g>
								<g>
									<path style="fill:#ED681D;" d="M335.624,166.27c-0.294-1.719,0.289-3.467,1.458-4.762c1.513-1.677,4.218-4.198,6.334-3.56
										c3.11,0.937,3.046,3.83,2.284,6.667c-0.762,2.838-3.243,6.323-7.115,5.095C336.648,169.096,335.865,167.678,335.624,166.27
										z"/>
								</g>
							</g>
						</g>
					</g>
					<g>
						<g>
							<g>
								<g>
									<g>
										<g>
											<path style="fill:#272B34;" d="M339.49,166.348c0.031-1.232,0.15-2.508,0.781-3.598c0.564-0.973,1.957-2.295,3.217-1.652
												c0.422,0.215,0.831-0.406,0.406-0.623c-1.214-0.62-2.551-0.056-3.468,0.857c-1.323,1.318-1.634,3.197-1.679,4.987
												C338.735,166.796,339.477,166.828,339.49,166.348L339.49,166.348z"/>
										</g>
									</g>
								</g>
							</g>
						</g>
					</g>
				</g>
			</g>
			<g>
				<g>
					<path style="fill:#473A94;" d="M390.076,317.112c-0.002,0.002-0.002,0.002-0.004,0c-0.301,0.168-0.602,0.334-0.91,0.501
						c-1.941,1.047-4.035,2.09-6.291,3.126c-0.425,0.196-0.851,0.39-1.274,0.582c-0.335,0.15-0.669,0.301-1.003,0.449
						c-0.35,0.158-0.701,0.315-1.051,0.469c-0.382,0.17-0.762,0.336-1.142,0.503c-13.929,6.077-26.685,10.128-37.539,12.829
						c-0.198,0.048-0.394,0.097-0.59,0.145c-21.862,5.377-35.847,5.25-35.847,5.25l-7.682-17.673l35.722-20.877
						c0,0,39.727-25.183,58.202-25.276C408.062,277.052,425.371,297.579,390.076,317.112z"/>
				</g>
				<g>
					<g>
						<path style="fill:#746ADB;" d="M381.596,321.321c-0.335,0.15-0.669,0.301-1.003,0.449c-0.752-0.135-1.496-0.323-2.228-0.556
							c-2.998-0.958-5.762-2.638-8.022-4.823c-2.57-2.483-4.443-5.566-6.663-8.345c-2.278-2.85-5.001-5.181-8.388-6.601
							c-3.17-1.33-8.71-1.823-12.12-1.417c0.247-0.212,0.797-0.362,1.026-0.594c3.29-0.445,8.163,0.17,11.143,1.391
							c3.087,1.265,5.727,3.251,7.904,5.77c2.345,2.713,4.195,5.82,6.627,8.462C372.917,318.362,377.154,320.749,381.596,321.321z"
							/>
					</g>
				</g>
				<g>
					<g>
						<path style="fill:#746ADB;" d="M333.352,319.651c-1.639-4.388-5.717-6.909-9.923-8.477c-0.026,0.063-0.07,0.122-0.139,0.17
							c-0.133,0.094-0.271,0.179-0.411,0.259c4.229,1.518,8.495,4.025,10.006,8.5c1.765,5.228-1.578,10.189-4.456,14.274
							c-0.22,0.313,0.294,0.61,0.513,0.3C331.969,330.378,335.392,325.111,333.352,319.651z"/>
					</g>
				</g>
				<g>
					<g>
						<path style="fill:#746ADB;" d="M390.072,317.112c-0.301,0.168-0.602,0.334-0.91,0.501c-2.24-0.297-4.354-1.445-6.117-2.887
							c-4.508-3.693-7.253-9.461-7.3-15.285c-0.049-5.913,2.673-11.687,7.169-15.5c0.291-0.245,0.712,0.172,0.421,0.419
							c-2.418,2.05-4.326,4.65-5.529,7.587c-2.119,5.175-1.894,11.022,0.617,16.019C380.53,312.157,385.004,317.06,390.072,317.112z
							"/>
					</g>
				</g>
				<g>
					<g>
						<path style="fill:#746ADB;" d="M370.926,325.506c-2.272-2.43-5.046-4.353-8.133-5.598c-5.284-2.125-12.299-2.675-17.085,0.93
							c-4.587,3.453-5.766,9.344-4.846,14.732c-0.198,0.048-0.394,0.097-0.59,0.145c-0.548-3.002-0.477-6.121,0.556-9.018
							c0.958-2.689,2.691-5.123,5.074-6.722c2.62-1.757,5.861-2.365,8.972-2.303c6.216,0.125,12.235,2.883,16.474,7.413
							C371.607,325.364,371.19,325.785,370.926,325.506z"/>
					</g>
				</g>
				<g>
					<g>
						<g>
							<path style="fill:#ED681D;" d="M272.621,342.147c-0.011,1.107,0.06,2.207,0.233,3.29c0.283-0.156,0.569-0.298,0.867-0.417
								c0.107-0.045,0.231-0.09,0.368-0.141c1.565-0.582,6.044-1.721,10.704-2.911c2.992-0.762,6.057-1.543,8.471-2.213
								c0,0,0-0.002,0-0.004c-1.802-3.675-5.237-7.13-8.073-9.567c-0.034-0.019-0.066-0.036-0.101-0.054l-5.023,3.016l-0.672,0.402
								c0,0-1.518-0.372-3.542-0.625c-0.484-0.06-0.997-0.113-1.524-0.152c-0.114,0.355-0.225,0.715-0.33,1.077
								C273.203,336.548,272.651,339.371,272.621,342.147z"/>
						</g>
					</g>
					<g>
						<g>
							<path style="fill:#FFFFFF;" d="M246.701,368.38c0.781,0.111,2.762-1.048,3.692-1.886c2.874-2.575,6.132-7.587,8.264-9.592
								c2.826-2.657,18.633-8.995,18.633-8.995s3.484-1.505,1.138-3.158c-2.341-1.654-5.27-2.264-5.27-2.264
								s0.347-4.899,1.724-7.084c0.217-0.345,3.103-0.471,3.103-0.471l1.478-0.917c0,0,1.77-1.244,0.032-2.105
								c-1.742-0.862-3.38,0.601-5.23-0.185c-1.35-0.574-3.502-1.614-6.187-1.903c-1.003-0.111-2.078-0.116-3.215,0.048
								c-4.184,0.599-9.928,13.643-13.416,18.687c-3.491,5.04-6.868,7.814-7.76,12.758
								C242.793,366.256,243.514,367.93,246.701,368.38z"/>
						</g>
					</g>
					<g>
						<g>
							<path style="fill:#272B34;" d="M265.921,329.164c-4.237,4.476-6.563,10.122-9.501,15.444
								c-1.577,2.855-3.494,5.343-5.486,7.911c-1.941,2.501-3.92,5.204-5.129,8.15c-1.023,2.493-1.451,5.586,0.563,7.703
								c0.266,0.279,0.688-0.144,0.423-0.423c-2.062-2.166-1.234-5.486-0.062-7.887c1.4-2.869,3.333-5.521,5.325-8.003
								c1.754-2.186,3.354-4.411,4.724-6.863c1.365-2.443,2.562-4.975,3.888-7.439c1.581-2.939,3.377-5.737,5.678-8.168
								C266.608,329.307,266.186,328.883,265.921,329.164L265.921,329.164z"/>
						</g>
					</g>
					<g>
						<g>
							<g>
								<path style="fill:#272B34;" d="M265.251,353.868c-0.237,0.121-0.526,0.014-0.623-0.234
									c-0.346-0.886-0.881-1.727-1.833-1.975c-0.568-0.148-0.414-1.054,0.16-0.905c1.287,0.335,2.036,1.382,2.509,2.537
									c0.088,0.216,0.003,0.466-0.205,0.573C265.257,353.865,265.254,353.866,265.251,353.868z"/>
							</g>
						</g>
					</g>
					<g>
						<g>
							<g>
								<path style="fill:#272B34;" d="M267.285,352.69c-0.237,0.121-0.526,0.014-0.623-0.234c-0.346-0.886-0.881-1.727-1.833-1.975
									c-0.568-0.148-0.414-1.054,0.16-0.905c1.287,0.335,2.037,1.382,2.509,2.537c0.088,0.216,0.003,0.466-0.205,0.573
									C267.29,352.687,267.288,352.688,267.285,352.69z"/>
							</g>
						</g>
					</g>
					<g>
						<g>
							<g>
								<path style="fill:#272B34;" d="M263.02,354.915c-0.222,0.089-0.474-0.015-0.571-0.233c-0.347-0.777-0.864-1.471-1.714-1.692
									c-0.568-0.148-0.414-1.054,0.16-0.905c1.168,0.304,1.894,1.195,2.371,2.221c0.108,0.232,0,0.51-0.238,0.605
									C263.025,354.913,263.023,354.914,263.02,354.915z"/>
							</g>
						</g>
					</g>
				</g>
				<g>
					<g>
						<path style="fill:#1E1759;" d="M393.038,282.445c6.379,2.936,11.174,8.693,12.892,15.505c0.101,0.4,0.72,0.231,0.619-0.171
							c-1.754-6.956-6.669-12.888-13.187-15.889C392.989,281.719,392.663,282.272,393.038,282.445L393.038,282.445z"/>
					</g>
				</g>
				<g>
					<g>
						<path style="fill:#1E1759;" d="M363.953,286.96c-14.475,8.97-29.174,17.575-44.086,25.798
							c-4.243,2.34-8.504,4.648-12.78,6.927c-0.365,0.194-0.041,0.749,0.324,0.554c15.028-8.009,29.854-16.394,44.456-25.156
							c4.155-2.493,8.291-5.017,12.41-7.57C364.627,287.297,364.305,286.742,363.953,286.96L363.953,286.96z"/>
					</g>
				</g>
			</g>
			<g>
				<g>
					<path style="fill:#473A94;" d="M310.601,347.547c0,0-4.648-1.041-13.173-3.661c-0.22-0.067-0.441-0.137-0.667-0.206
						c-7.636-2.365-18.229-5.95-31.264-11.119c-0.184-0.073-0.368-0.146-0.554-0.22c-2.915-1.16-5.952-2.398-9.103-3.72
						l-0.706-0.297c-5.414-2.28-11.163-4.801-17.216-7.585c-3.558-1.637-6.716-3.289-9.506-4.945
						c-0.214-0.127-0.423-0.253-0.633-0.38c-0.002,0-0.002,0-0.002,0c-3.671-2.224-6.679-4.454-9.107-6.659
						c-0.212-0.192-0.419-0.384-0.623-0.576c-17.345-16.385-2.665-31.114,12.075-31.04c18.473,0.093,58.2,25.276,58.2,25.276
						l35.724,24.706C313.411,335.276,309.103,341.944,310.601,347.547z"/>
				</g>
				<g>
					<g>
						<g>
							<path style="fill:#746ADB;" d="M255.841,328.621l-0.706-0.297c-1.593-5.139-5.238-9.582-10.068-12.035
								c-5.161-2.622-11.361-2.693-16.654-0.495c-0.214-0.127-0.423-0.253-0.633-0.38c1.888-0.839,3.894-1.387,5.958-1.635
								c5.331-0.635,10.759,0.811,14.976,4.152C252.14,320.646,254.661,324.426,255.841,328.621z"/>
						</g>
					</g>
					<g>
						<g>
							<path style="fill:#746ADB;" d="M258.31,293.488c0.277,5.809,3.892,10.945,8.728,13.99c5.696,3.587,12.761,4.183,19.304,3.432
								c0.375-0.043,0.379-0.637,0-0.594c-6.26,0.719-12.959,0.218-18.497-3.042c-4.904-2.886-8.665-7.989-8.941-13.787
								C258.885,293.108,258.292,293.106,258.31,293.488L258.31,293.488z"/>
						</g>
					</g>
					<g>
						<g>
							<path style="fill:#746ADB;" d="M243.419,287.055c-1.069,6.237-4.413,12.027-9.354,15.997
								c-4.365,3.509-9.827,5.487-15.395,5.703c-0.212-0.192-0.419-0.384-0.623-0.576c5.731-0.095,11.394-2.082,15.841-5.745
								c4.743-3.906,7.923-9.493,8.96-15.536C242.913,286.521,243.485,286.681,243.419,287.055z"/>
						</g>
					</g>
					<g>
						<g>
							<path style="fill:#746ADB;" d="M301.873,318.95c-1.876,2.193-4.567,3.319-7.369,3.764
								c-6.198,0.986-12.534-1.526-18.657,0.178c-4.765,1.328-8.669,5.056-10.349,9.669c-0.184-0.073-0.368-0.146-0.554-0.22
								c0.793-2.191,2.068-4.187,3.718-5.848c1.773-1.785,3.956-3.174,6.348-3.966c3.061-1.013,6.324-0.896,9.495-0.615
								c5.671,0.503,12.771,1.506,16.947-3.382C301.7,318.24,302.118,318.661,301.873,318.95z"/>
						</g>
					</g>
					<g>
						<g>
							<path style="fill:#746ADB;" d="M311.749,324.481c-6.415,0.222-12.447,4.723-14.313,10.903
								c-0.837,2.778-0.79,5.741-0.008,8.501c-0.22-0.067-0.441-0.137-0.667-0.206c-1.075-4.227-0.455-8.782,2.01-12.471
								c2.883-4.314,7.779-7.144,12.977-7.322C312.133,323.874,312.131,324.467,311.749,324.481z"/>
						</g>
					</g>
				</g>
				<g>
					<g>
						<path style="fill:#1E1759;" d="M248.358,287.216c17.226,10.987,34.732,21.564,52.637,31.41
							c4.905,2.697,9.843,5.334,14.822,7.891c0.339,0.174,0.64-0.338,0.3-0.513c-18.104-9.297-35.706-19.572-53.027-30.248
							c-4.834-2.98-9.645-5.999-14.433-9.052C248.335,286.497,248.036,287.011,248.358,287.216L248.358,287.216z"/>
					</g>
				</g>
				<g>
					<g>
						<path style="fill:#1E1759;" d="M221.661,283.024c-5.196,3.581-8.178,9.847-7.627,16.142c0.036,0.408,0.678,0.412,0.642,0
							c-0.531-6.063,2.291-12.128,7.309-15.587C222.323,283.345,222.003,282.789,221.661,283.024L221.661,283.024z"/>
					</g>
				</g>
				<g>
					<g>
						<path style="fill:#1E1759;" d="M319.032,323.914c-7.584,4.338-14.549,13.167-13.871,22.32c0.03,0.41,0.673,0.413,0.642,0
							c-0.662-8.934,6.152-17.532,13.553-21.765C319.714,324.263,319.391,323.708,319.032,323.914L319.032,323.914z"/>
					</g>
				</g>
				<g>
					<path style="fill:#272B34;" d="M324.047,327.119c0,0-2.05,1.366-4.574,3.536c-2.836,2.438-6.271,5.892-8.073,9.567
						c-1.186,2.421-1.665,4.938-0.798,7.324c0,0,4.97-0.225,9.27-5.107c1.128-1.28,2.211-2.881,3.144-4.882
						c0.711-1.524,1.222-2.827,1.582-3.94C326.502,327.691,324.047,327.119,324.047,327.119z"/>
				</g>
				<g>
					<g>
						<g>
							<path style="fill:#ED681D;" d="M332.043,342.62c0.011,1.107-0.06,2.207-0.233,3.29c-0.283-0.156-0.569-0.297-0.867-0.417
								c-0.107-0.045-0.231-0.09-0.368-0.141c-1.565-0.582-6.044-1.721-10.704-2.911c-2.992-0.762-6.057-1.543-8.471-2.213
								c0,0,0-0.002,0-0.004c1.802-3.675,5.237-7.13,8.073-9.567c0.034-0.019,0.066-0.036,0.101-0.053l5.023,3.016l0.672,0.402
								c0,0,1.518-0.372,3.542-0.625c0.484-0.06,0.997-0.113,1.524-0.152c0.113,0.355,0.225,0.715,0.33,1.077
								C331.461,337.021,332.013,339.844,332.043,342.62z"/>
						</g>
					</g>
					<g>
						<g>
							<g>
								<path style="fill:#FFFFFF;" d="M357.249,367.087c-0.78,0.123-2.778-1.005-3.721-1.829c-2.914-2.53-6.248-7.491-8.412-9.462
									c-2.867-2.612-18.77-8.705-18.77-8.705s-3.507-1.45-1.187-3.14c2.315-1.69,5.234-2.346,5.234-2.346
									s-0.423-4.893-1.834-7.057c-0.223-0.341-3.11-0.423-3.11-0.423l-1.491-0.894c0,0-1.789-1.216-0.065-2.105
									c1.728-0.888,3.389,0.548,5.226-0.266c1.341-0.595,3.477-1.669,6.157-1.999c1.001-0.126,2.076-0.148,3.215-0.002
									c4.193,0.534,10.139,13.487,13.704,18.477c3.569,4.986,6.988,7.707,7.957,12.636
									C361.124,364.902,360.43,366.587,357.249,367.087z"/>
							</g>
						</g>
						<g>
							<g>
								<path style="fill:#272B34;" d="M337.094,329.67c4.141,3.849,6.91,8.8,9.696,13.652c1.398,2.434,2.813,4.865,4.439,7.156
									c1.697,2.391,3.834,4.425,5.518,6.817c1.795,2.549,3.335,6.973,0.15,9.127c-0.317,0.215-0.018,0.733,0.302,0.516
									c2.121-1.435,2.477-3.975,1.843-6.333c-0.827-3.078-3.195-5.359-5.193-7.712c-4.051-4.77-6.695-10.497-10.015-15.758
									c-1.805-2.86-3.833-5.58-6.317-7.889C337.235,328.985,336.811,329.407,337.094,329.67L337.094,329.67z"/>
							</g>
						</g>
						<g>
							<g>
								<g>
									<path style="fill:#272B34;" d="M338.477,352.863c0.239,0.118,0.526,0.006,0.619-0.243c0.332-0.892,0.854-1.741,1.802-2.003
										c0.565-0.157,0.398-1.061-0.174-0.902c-1.282,0.355-2.015,1.414-2.469,2.575c-0.085,0.217,0.005,0.466,0.214,0.57
										C338.471,352.861,338.474,352.862,338.477,352.863z"/>
								</g>
							</g>
						</g>
						<g>
							<g>
								<g>
									<path style="fill:#272B34;" d="M336.425,351.717c0.239,0.118,0.526,0.006,0.619-0.243c0.333-0.892,0.854-1.741,1.802-2.003
										c0.565-0.157,0.397-1.061-0.174-0.902c-1.282,0.355-2.015,1.413-2.469,2.575c-0.085,0.217,0.005,0.466,0.214,0.57
										C336.419,351.714,336.422,351.716,336.425,351.717z"/>
								</g>
							</g>
						</g>
						<g>
							<g>
								<g>
									<path style="fill:#272B34;" d="M340.724,353.876c0.223,0.086,0.473-0.022,0.568-0.242c0.335-0.782,0.841-1.484,1.687-1.718
										c0.565-0.156,0.397-1.06-0.174-0.902c-1.164,0.322-1.875,1.225-2.336,2.258c-0.104,0.234,0.008,0.51,0.247,0.602
										C340.718,353.874,340.721,353.875,340.724,353.876z"/>
								</g>
							</g>
						</g>
					</g>
				</g>
			</g>
			<g>
				<g>
					<path style="fill:#FEA500;" d="M323.616,206.831c0,0-0.788,14.126-17.483,10.488s-21.525-15.303-35.764-12.059
						c0,0,8.65-2.044,16.147,9.277c0,0,21.612,14.768,34.734,8.133c9.146-4.624,5.93-15.625,5.93-15.625l-1.388-6.983
						L323.616,206.831z"/>
				</g>
				<g>
					<polygon style="fill:#FEA500;" points="326.087,194.165 320.145,200.062 325.418,211.219 331.9,200.495 					"/>
				</g>
				<g>
					<path style="fill:#CE6F00;" d="M325.418,211.518c-0.005,0-0.01,0-0.015,0c-0.11-0.006-0.208-0.071-0.255-0.171l-1.657-3.506
						c-0.07-0.149-0.007-0.327,0.143-0.398c0.149-0.07,0.327-0.006,0.398,0.143l1.419,3.003l1.603-2.651
						c0.085-0.141,0.269-0.187,0.411-0.101c0.141,0.085,0.186,0.269,0.101,0.411l-1.891,3.128
						C325.62,211.464,325.522,211.518,325.418,211.518z"/>
				</g>
				<g>
					<path style="fill:#FFFFFF;" d="M320.27,185.174c0,0-1.797-1.08-6.885,1.343l3.144,19.78l9.558-12.131L320.27,185.174z"/>
				</g>
				<g>
					<path style="fill:#FFFFFF;" d="M339.819,185.843l-13.732,8.323l8.452,14.271l12.378-19.38
						C346.917,189.056,344.755,185.639,339.819,185.843z"/>
				</g>
				<g>
					<path style="fill:#CE6F00;" d="M286.516,214.537c0,0-9.531-4.88-15.332-1.07c-6.61,4.342-5.529,7.991-5.529,7.991l-5.478,3.659
						l-3.333-8.011c0,0,4.882-14.654,20.611-12.196C277.455,204.909,282.738,208.437,286.516,214.537z"/>
				</g>
			</g>
		</g>
	</g>
	<g>
		<g>
			<g>
				<path style="fill:#272B34;" d="M431.446,282.329v9.275c0,0.475-0.051,0.942-0.15,1.391c-0.133,0.615-0.35,1.199-0.644,1.748
					c-1.333,2.503-4.209,4.234-7.543,4.234H128.465c-3.334,0-6.21-1.731-7.54-4.234c-0.294-0.549-0.514-1.134-0.644-1.748
					c-0.099-0.45-0.15-0.917-0.15-1.391v-9.275H431.446z"/>
			</g>
			<g>
				<polygon style="fill:#272B34;" points="140.31,298.977 123.271,454.392 130.86,454.391 154.437,298.977 				"/>
			</g>
			<g>
				<polygon style="fill:#272B34;" points="410.241,298.977 427.28,454.392 419.692,454.391 396.114,298.977 				"/>
			</g>
			<g>
				<rect x="137.981" y="366.496" style="fill:#272B34;" width="271.632" height="5.079"/>
			</g>
			<g>
				<g>
					<path style="fill:#63636D;" d="M431.297,292.995c-0.133,0.615-0.35,1.199-0.644,1.748H120.925
						c-0.294-0.549-0.514-1.134-0.644-1.748H431.297z"/>
				</g>
			</g>
		</g>
		<g>
			<g>
				<polygon style="fill:#FFFFFF;" points="290.193,282.513 197.372,282.325 194.744,272.956 287.564,273.145 				"/>
			</g>
			<g>
				<path style="fill:#272B34;" d="M286.336,275.863h-27.757c-0.275,0-0.498-0.223-0.498-0.498s0.223-0.498,0.498-0.498h27.757
					c0.275,0,0.498,0.223,0.498,0.498S286.611,275.863,286.336,275.863z"/>
			</g>
			<g>
				<g>
					<path style="fill:#FFFFFF;" d="M255.136,277.776l-51.888-0.105c-1.823-0.004-3.414-1.346-3.876-3.269l-10.278-42.785
						c-0.668-2.781,1.259-5.498,3.894-5.493l52.535,0.107c2.379,0.005,4.456,1.757,5.059,4.267l9.636,40.11
						C261.09,274.236,258.576,277.783,255.136,277.776z"/>
				</g>
				<g>
					<path style="fill:#FFFFFF;" d="M250.87,277.767l-51.887-0.105c-1.823-0.004-3.414-1.346-3.876-3.269l-10.278-42.785
						c-0.668-2.781,1.259-5.498,3.894-5.493l52.535,0.107c2.379,0.005,4.456,1.757,5.059,4.267l9.636,40.11
						C256.824,274.227,254.309,277.774,250.87,277.767z"/>
				</g>
				<g>
					<path style="fill:#272B34;" d="M246.072,230.594h-58.526c-0.275,0-0.498-0.223-0.498-0.498s0.223-0.498,0.498-0.498h58.526
						c0.275,0,0.498,0.223,0.498,0.498S246.347,230.594,246.072,230.594z"/>
				</g>
				<g>
					<path style="fill:#272B34;" d="M225.981,255.115c0.544,3.477-1.503,6.291-4.572,6.285c-3.069-0.006-5.998-2.83-6.541-6.308
						c-0.544-3.477,1.503-6.291,4.572-6.285C222.509,248.814,225.437,251.638,225.981,255.115z"/>
				</g>
				<g>
					<g>
						<path style="fill:#272B34;" d="M246.624,230.038c3.377,14.313,6.754,28.626,10.131,42.939
							c0.137,0.581-0.743,0.905-0.882,0.319c-3.377-14.313-6.754-28.626-10.131-42.939
							C245.606,229.776,246.486,229.452,246.624,230.038L246.624,230.038z"/>
					</g>
				</g>
			</g>
		</g>
		<g>
			<g>
				<g>
					<rect x="138.847" y="272.618" style="fill:#636538;" width="38.6" height="9.719"/>
				</g>
				<g>
					<rect x="128.987" y="272.618" style="fill:#ACA238;" width="47.248" height="8.406"/>
				</g>
				<g>
					<rect x="137.635" y="273.931" style="fill:#FFFFFF;" width="38.6" height="8.406"/>
				</g>
				<g>
					<g>
						<path style="fill:#D8BA9A;" d="M175.51,280.276h-7.922v-0.539h7.922c0.141,0,0.255,0.114,0.255,0.255v0.029
							C175.765,280.162,175.651,280.276,175.51,280.276z"/>
					</g>
					<g>
						<path style="fill:#D8BA9A;" d="M175.51,277.36h-7.922v-0.539h7.922c0.141,0,0.255,0.114,0.255,0.255v0.029
							C175.765,277.246,175.651,277.36,175.51,277.36z"/>
					</g>
				</g>
				<g>
					<rect x="128.987" y="273.931" style="fill:#ACA238;" width="38.6" height="8.406"/>
				</g>
				<g>
					<rect x="161.026" y="275.19" style="fill:#636538;" width="2.198" height="5.833"/>
				</g>
				<g>
					<rect x="152.033" y="273.931" style="fill:#272737;" width="1.412" height="8.406"/>
				</g>
				<g>
					<rect x="156.229" y="273.931" style="fill:#272737;" width="1.412" height="8.406"/>
				</g>
				<g>
					<path style="fill:#272737;" d="M136.971,277.477c0,1.394-1.13,2.523-2.523,2.523c-1.394,0-2.523-1.13-2.523-2.523
						c0-1.394,1.13-2.523,2.523-2.523C135.841,274.954,136.971,276.084,136.971,277.477z"/>
				</g>
			</g>
			<g>
				<g>
					<rect x="134.398" y="262.898" style="fill:#1E1759;" width="38.6" height="9.72"/>
				</g>
				<g>
					<rect x="124.538" y="262.898" style="fill:#473A94;" width="47.248" height="8.406"/>
				</g>
				<g>
					<rect x="133.186" y="264.211" style="fill:#FFFFFF;" width="38.6" height="8.406"/>
				</g>
				<g>
					<g>
						<path style="fill:#D8BA9A;" d="M171.061,270.544h-7.922v-0.539h7.922c0.141,0,0.255,0.114,0.255,0.255v0.029
							C171.316,270.429,171.202,270.544,171.061,270.544z"/>
					</g>
					<g>
						<path style="fill:#D8BA9A;" d="M171.061,267.628h-7.922v-0.539h7.922c0.141,0,0.255,0.114,0.255,0.255v0.029
							C171.316,267.513,171.202,267.628,171.061,267.628z"/>
					</g>
				</g>
				<g>
					<rect x="124.538" y="264.211" style="fill:#473A94;" width="38.6" height="8.406"/>
				</g>
				<g>
					<rect x="156.577" y="265.471" style="fill:#1E1759;" width="2.198" height="5.833"/>
				</g>
				<g>
					<rect x="147.584" y="264.211" style="fill:#272737;" width="1.412" height="8.406"/>
				</g>
				<g>
					<rect x="151.78" y="264.211" style="fill:#272737;" width="1.412" height="8.406"/>
				</g>
				<g>
					<path style="fill:#272737;" d="M132.522,268.044c0,1.394-1.13,2.523-2.523,2.523c-1.394,0-2.524-1.13-2.524-2.523
						c0-1.394,1.13-2.523,2.524-2.523C131.392,265.521,132.522,266.651,132.522,268.044z"/>
				</g>
			</g>
			<g>
				<g>
					<rect x="140.304" y="253.178" style="fill:#CE6F00;" width="38.6" height="9.719"/>
				</g>
				<g>
					<rect x="130.444" y="253.178" style="fill:#FEA500;" width="47.248" height="8.406"/>
				</g>
				<g>
					<rect x="139.091" y="254.492" style="fill:#FFFFFF;" width="38.6" height="8.406"/>
				</g>
				<g>
					<g>
						<path style="fill:#D8BA9A;" d="M176.966,260.695h-7.922v-0.539h7.922c0.141,0,0.255,0.114,0.255,0.255v0.029
							C177.222,260.58,177.107,260.695,176.966,260.695z"/>
					</g>
					<g>
						<path style="fill:#D8BA9A;" d="M176.966,257.778h-7.922v-0.539h7.922c0.141,0,0.255,0.114,0.255,0.255v0.029
							C177.222,257.664,177.107,257.778,176.966,257.778z"/>
					</g>
				</g>
				<g>
					<rect x="130.444" y="254.492" style="fill:#FEA500;" width="38.6" height="8.406"/>
				</g>
				<g>
					<rect x="162.483" y="255.751" style="fill:#CE6F00;" width="2.198" height="5.833"/>
				</g>
				<g>
					<rect x="153.489" y="254.492" style="fill:#272737;" width="1.412" height="8.406"/>
				</g>
				<g>
					<rect x="157.685" y="254.492" style="fill:#272737;" width="1.412" height="8.406"/>
				</g>
				<g>
					<path style="fill:#272737;" d="M138.428,258.325c0,1.394-1.13,2.523-2.523,2.523c-1.394,0-2.523-1.13-2.523-2.523
						s1.13-2.523,2.523-2.523C137.298,255.801,138.428,256.931,138.428,258.325z"/>
				</g>
			</g>
		</g>
	</g>
	<g>
		<g>
			<g>
				<path style="fill:#272B34;" d="M96.14,454.319c-5.487,0.732-10.973,0.732-16.46,0v-7.133h16.46V454.319z"/>
			</g>
		</g>
		<g>
			<g>
				<path style="fill:#473A94;" d="M113.706,415.409l-2.667,7.297l-0.197,0.538l-1.521,4.16l-0.191,0.525l-1.264,3.453l-0.225,0.619
					l-0.025,0.066l-0.316,0.87l-1.561,4.27l-0.345,0.945l-3.145,8.608l-0.239,0.65l-0.619,1.697
					c-0.225,0.617-0.614,1.142-1.103,1.542c-0.197,0.155-0.407,0.294-0.635,0.407c-0.421,0.214-0.886,0.345-1.375,0.375
					c-0.076,0.006-0.15,0.008-0.225,0.008H77.767c-0.333,0-0.653-0.046-0.964-0.131c-0.248-0.074-0.487-0.169-0.712-0.29
					c-0.754-0.402-1.354-1.072-1.661-1.911l-2.548-6.971l-0.314-0.862l-1.805-4.933l-0.195-0.536l-0.097-0.261
					c0-0.002,0-0.002,0-0.002l-0.309-0.849l-1.767-4.838l-0.201-0.547l-1.116-3.056l-0.282-0.771l-0.26-0.708l-0.201-0.549
					l-0.89-2.44l-0.231-0.629l-2.099-5.746H113.706z"/>
			</g>
		</g>
		<g>
			<g>
				<g>
					<path style="fill:#1E1759;" d="M109.32,427.403l-0.191,0.525c-1.718-0.671-3.465-1.275-5.232-1.811
						c-12.402-3.764-25.751-4.224-38.362-1.345l-0.201-0.549c0.779-0.182,1.561-0.347,2.345-0.5
						C81.559,421.016,96.159,422.293,109.32,427.403z"/>
				</g>
			</g>
			<g>
				<g>
					<path style="fill:#1E1759;" d="M107.865,431.381l-0.225,0.619c-3.472,0.631-6.475,3.213-7.32,6.935
						c-0.653,2.883,0.174,5.728,1.928,7.823l-0.239,0.65c-2.961-3.235-3.277-8.191-0.873-11.86
						C102.669,433.207,105.183,431.758,107.865,431.381z"/>
				</g>
			</g>
			<g>
				<g>
					<path style="fill:#1E1759;" d="M98.278,451.431c-0.076,0.006-0.15,0.008-0.225,0.008h-0.347
						c-0.528-2.347-1.15-4.671-1.981-6.931c-2.389-6.501-6.77-12.279-13.573-14.461c-4.844-1.553-9.881-1.286-14.759-0.191
						l-0.201-0.547c2.021-0.462,4.073-0.779,6.151-0.887c7.066-0.364,13.912,2.025,18.399,7.647
						C95.302,440.529,97.041,445.934,98.278,451.431z"/>
				</g>
			</g>
			<g>
				<g>
					<path style="fill:#1E1759;" d="M84.872,451.438H84.27c0.599-4.16,0.046-8.363-2.811-11.786
						c-2.249-2.694-5.592-3.927-9.061-3.728c-0.9,0.051-1.779,0.195-2.637,0.417l-0.195-0.536c0.599-0.155,1.209-0.275,1.828-0.354
						c2.777-0.356,5.708,0.108,8.075,1.659c2.071,1.356,3.582,3.423,4.505,5.698C85.113,445.613,85.282,448.544,84.872,451.438z"/>
				</g>
			</g>
			<g>
				<g>
					<path style="fill:#1E1759;" d="M111.038,422.706l-0.197,0.538c-0.491-0.127-0.974-0.277-1.447-0.451
						c-3.929-1.44-7.117-4.258-9.841-7.384h0.754c2.427,2.72,5.211,5.158,8.592,6.581
						C109.589,422.279,110.305,422.52,111.038,422.706z"/>
				</g>
			</g>
			<g>
				<g>
					<path style="fill:#1E1759;" d="M76.67,415.409c-1.781,2.09-4.137,3.688-6.689,4.772c-1.786,0.76-3.643,1.262-5.537,1.603
						l-0.231-0.629c4.558-0.809,8.899-2.427,11.815-5.746H76.67z"/>
				</g>
			</g>
		</g>
		<g>
			<g>
				<path style="fill:#272B34;" d="M113.706,415.409c0,1.092-11.549,1.978-25.796,1.978c-14.247,0-25.796-0.885-25.796-1.978
					c0-1.092,11.549-1.978,25.796-1.978C102.157,413.432,113.706,414.317,113.706,415.409z"/>
			</g>
		</g>
		<g>
			<g>
				<g>
					<g>
						<path style="fill:#636538;" d="M72.041,393.967c0,0,7.12-2.597,8.963,4.942s7.118,5.593,8.117,3.941
							c1.968-3.255,2.243-15.034-1.141-15.744C83.938,386.258,73.465,390.533,72.041,393.967z"/>
					</g>
				</g>
				<g>
					<g>
						<path style="fill:#ACA238;" d="M76.286,384.652c0,0-7.195-2.321-9.875,5.219c-2.681,7.539,0,26.067,0,26.067
							s6.199-1.942,8.209-8.308c2.011-6.366,1.801-20.355,13.361-20.523L76.286,384.652z"/>
					</g>
				</g>
				<g>
					<g>
						<path style="fill:#636538;" d="M77.753,385.102c-6.253,3.642-7.258,11.36-7.891,17.892c-0.033,0.339,0.498,0.337,0.53,0
							c0.614-6.333,1.553-13.896,7.628-17.434C78.316,385.388,78.049,384.929,77.753,385.102L77.753,385.102z"/>
					</g>
				</g>
			</g>
			<g>
				<g>
					<g>
						<path style="fill:#636538;" d="M101.327,344.596c0,0-7.009-2.883-9.156,4.575c-2.147,7.458-7.194,6.859-8.096,3.73
							c-1.054-3.655-1.807-15.233,1.603-15.806C89.752,336.411,100.043,341.106,101.327,344.596z"/>
					</g>
				</g>
				<g>
					<g>
						<path style="fill:#ACA238;" d="M97.463,335.116c0,0,7.283-2.027,9.656,5.614c2.373,7.642-1.056,26.045-1.056,26.045
							s-6.115-2.191-7.866-8.634c-1.751-6.443-0.975-20.412-12.519-21.047L97.463,335.116z"/>
					</g>
				</g>
				<g>
					<g>
						<path style="fill:#636538;" d="M95.389,335.83c6.641,5.172,7.744,14.003,8.564,21.805c0.035,0.336,0.566,0.34,0.53,0
							c-0.833-7.933-1.967-16.922-8.719-22.18C95.498,335.248,95.12,335.621,95.389,335.83L95.389,335.83z"/>
					</g>
				</g>
			</g>
			<g>
				<g>
					<g>
						<path style="fill:#636538;" d="M108.778,379.19c0,0-4.377-1.318-8.963,4.942c-4.419,6.032-6.181,6.74-9.176,4.394
							c-2.995-2.346-1.184-15.487,2.2-16.197C96.882,371.481,107.354,375.755,108.778,379.19z"/>
					</g>
				</g>
				<g>
					<g>
						<path style="fill:#ACA238;" d="M108.756,368.78c0,0,10.269-3.312,14.095,7.448c3.826,10.76,0,37.204,0,37.204
							s-8.847-2.771-11.717-11.858c-2.869-9.086-2.57-29.053-19.069-29.292L108.756,368.78z"/>
					</g>
				</g>
				<g>
					<g>
						<path style="fill:#636538;" d="M105.921,369.925c8.286,4.294,13.714,13.277,13.648,22.611c-0.002,0.341,0.528,0.342,0.53,0
							c0.067-9.511-5.464-18.692-13.911-23.069C105.886,369.31,105.617,369.768,105.921,369.925L105.921,369.925z"/>
					</g>
				</g>
			</g>
			<g>
				<g>
					<g>
						<path style="fill:#636538;" d="M67.042,361.715c0,0,7.12-2.597,8.963,4.942c1.843,7.539,11.115,10.417,12.066,6.733
							c1.015-3.932-1.229-17.935-4.613-18.645C79.415,353.897,68.466,358.281,67.042,361.715z"/>
					</g>
				</g>
				<g>
					<g>
						<path style="fill:#ACA238;" d="M67.064,351.305c0,0-10.269-3.312-14.095,7.448c-3.826,10.76,0,37.204,0,37.204
							s8.847-2.771,11.717-11.858c2.869-9.086,2.57-29.053,19.07-29.292L67.064,351.305z"/>
					</g>
				</g>
				<g>
					<g>
						<path style="fill:#636538;" d="M71.185,352.224c-4.443,0.22-8.246,3.007-10.728,6.566c-3.026,4.341-4.065,9.707-5.062,14.802
							c-0.065,0.333,0.446,0.476,0.511,0.141c0.941-4.808,1.905-9.811,4.568-14.013c2.352-3.711,6.192-6.743,10.711-6.967
							C71.525,352.737,71.527,352.207,71.185,352.224L71.185,352.224z"/>
					</g>
				</g>
			</g>
			<g>
				<g>
					<path style="fill:#636538;" d="M87.398,415.207h1.808c4.547-19.25,1.485-39.87-1.949-53.936
						c-3.812-15.617-8.896-26.761-8.947-26.872c-0.203-0.442-0.726-0.635-1.167-0.432c-0.441,0.203-0.635,0.725-0.432,1.167
						c0.05,0.109,5.075,11.128,8.845,26.59C88.964,375.691,92.002,396.195,87.398,415.207z"/>
				</g>
			</g>
		</g>
	</g>
</g>
</svg>
